HIERARCHY
ROOT Pelvis
{
	OFFSET 0.000000 0.000000 0.000000
	CHANNELS 6 Xposition Yposition Zposition Xrotation Yrotation Zrotation
	JOINT LeftUpLeg_virtual
	{
		OFFSET 0.000000 0.000000 0.000000
		CHANNELS 3 Xrotation Yrotation Zrotation
		JOINT LeftUpLeg
		{
			OFFSET 18.735201 -5.666702 -4.541200
			CHANNELS 3 Xrotation Yrotation Zrotation
			JOINT LeftLeg
			{
				OFFSET -0.021200 -31.938179 0.493100
				CHANNELS 3 Xrotation Yrotation Zrotation
				JOINT LeftFoot
				{
					OFFSET 0.021200 -31.938179 -4.336299
					CHANNELS 3 Xrotation Yrotation Zrotation
					JOINT LeftToeBase
					{
						OFFSET 0.943001 -26.722000 15.023500
						CHANNELS 3 Xrotation Yrotation Zrotation
						End Site
						{
							OFFSET 0 0 0
						}
					}
				}
			}
		}
	}
	JOINT RightUpLeg_virtual
	{
		OFFSET 0.000000 0.000000 0.000000
		CHANNELS 3 Xrotation Yrotation Zrotation
		JOINT RightUpLeg
		{
			OFFSET -18.735201 -5.666702 -4.541200
			CHANNELS 3 Xrotation Yrotation Zrotation
			JOINT RightLeg
			{
				OFFSET 0.018946 -31.938133 0.493100
				CHANNELS 3 Xrotation Yrotation Zrotation
				JOINT RightFoot
				{
					OFFSET -0.018946 -31.938126 -4.336299
					CHANNELS 3 Xrotation Yrotation Zrotation
					JOINT RightToeBase
					{
						OFFSET -0.943001 -26.722004 15.023500
						CHANNELS 3 Xrotation Yrotation Zrotation
						End Site
						{
							OFFSET 0 0 0
						}
					}
				}
			}
		}
	}
	JOINT Hips_virtual
	{
		OFFSET 0.000000 0.000000 0.000000
		CHANNELS 3 Xrotation Yrotation Zrotation
		JOINT Hips
		{
			OFFSET -0.000000 -0.000000 -0.000000
			CHANNELS 3 Xrotation Yrotation Zrotation
			JOINT Spine
			{
				OFFSET 0.000000 10.199997 -0.299500
				CHANNELS 3 Xrotation Yrotation Zrotation
				JOINT Spine1
				{
					OFFSET 0.000000 11.900002 -1.516600
					CHANNELS 3 Xrotation Yrotation Zrotation
					JOINT Spine2
					{
						OFFSET 0.000000 13.600006 -2.842500
						CHANNELS 3 Xrotation Yrotation Zrotation
						JOINT Neck_virtual
						{
							OFFSET 0.000000 0.000000 0.000000
							CHANNELS 3 Xrotation Yrotation Zrotation
							JOINT Neck
							{
								OFFSET 0.000000 9.624100 -2.890100
								CHANNELS 3 Xrotation Yrotation Zrotation
								JOINT Head
								{
									OFFSET 0.000000 14.068802 -1.351900
									CHANNELS 3 Xrotation Yrotation Zrotation
									End Site
									{
										OFFSET 0 0 0
									}
								}
							}
						}
						JOINT LeftShoulder_virtual
						{
							OFFSET 0.000000 0.000000 0.000000
							CHANNELS 3 Xrotation Yrotation Zrotation
							JOINT LeftShoulder
							{
								OFFSET 15.263000 10.923401 -0.547700
								CHANNELS 3 Xrotation Yrotation Zrotation
								JOINT LeftArm
								{
									OFFSET 25.438599 -2.830597 -13.032500
									CHANNELS 3 Xrotation Yrotation Zrotation
									JOINT LeftForeArm
									{
										OFFSET 29.960503 0.000000 0.000000
										CHANNELS 3 Xrotation Yrotation Zrotation
										JOINT LeftHand
										{
											OFFSET 27.849251 0.000000 0.000000
											CHANNELS 3 Xrotation Yrotation Zrotation
											End Site
											{
												OFFSET 0 0 0
											}
										}
									}
								}
							}
						}
						JOINT RightShoulder_virtual
						{
							OFFSET 0.000000 0.000000 0.000000
							CHANNELS 3 Xrotation Yrotation Zrotation
							JOINT RightShoulder
							{
								OFFSET -15.263000 10.923401 -0.547700
								CHANNELS 3 Xrotation Yrotation Zrotation
								JOINT RightArm
								{
									OFFSET -25.438599 -2.830597 -13.032500
									CHANNELS 3 Xrotation Yrotation Zrotation
									JOINT RightForeArm
									{
										OFFSET -29.960503 0.000000 0.000000
										CHANNELS 3 Xrotation Yrotation Zrotation
										JOINT RightHand
										{
											OFFSET -27.849251 0.000000 0.000000
											CHANNELS 3 Xrotation Yrotation Zrotation
											End Site
											{
												OFFSET 0 0 0
											}
										}
									}
								}
							}
						}
					}
				}
			}
		}
	}
}
MOTION
Frames: 6
Frame Time: 0.03333333
4.304239 70.488762 132.814560 0.000000 0.000000 0.000000 4.794520 -6.896492 3.139631 22.547817 31.918799 11.722229 28.568229 16.769776 1.700679 -24.436726 2.982867 -32.460413 0.000000 0.000000 0.000000 3.852169 -5.582655 1.314980 -81.653375 -3.983360 -10.015093 56.501278 4.806361 -6.702181 16.448014 3.520621 9.971934 0.000000 0.000000 0.000000 2.689856 -4.278688 1.902049 -0.068949 -2.698773 0.225663 2.667158 -2.445720 3.495583 7.110689 -5.176598 -0.037073 0.000000 0.000000 0.000000 3.762237 -5.683876 -0.099411 2.535866 -0.294881 1.839020 0.000000 0.000000 0.000000 4.231626 -5.648725 -0.476919 -2.806734 -10.426247 -19.822826 -49.480759 -17.217293 -27.775077 -16.774460 -64.605195 7.075277 0.000000 0.000000 0.000000 4.002523 -5.476223 0.047897 -2.898727 -3.612474 -2.615294 -26.607383 32.553897 21.338160 37.888057 26.337158 -19.660247 0.000000 0.000000 0.000000 
3.368039 70.270988 136.293365 0.000000 0.000000 0.000000 6.801263 -11.712862 2.723867 21.898794 34.788537 11.323363 25.302538 18.319939 0.515265 -10.269288 -0.907622 -30.075024 0.000000 0.000000 0.000000 5.786754 -10.951751 0.332663 -83.660822 -4.944834 -5.742616 62.163956 4.105610 -6.235802 15.840734 2.648229 7.942249 0.000000 0.000000 0.000000 4.923714 -9.972457 1.140412 0.210622 -2.920435 -0.389265 1.889694 -4.707216 4.066256 7.776641 -8.491328 1.136110 0.000000 0.000000 0.000000 4.566075 -9.052346 1.067644 2.014785 0.501861 2.408034 0.000000 0.000000 0.000000 4.822067 -9.082976 0.664935 -4.646073 -15.164666 -20.749135 -44.334249 -27.407797 -30.176674 -14.218268 -49.955546 6.344446 0.000000 0.000000 0.000000 4.698308 -8.839611 1.403289 -3.054766 -4.220900 4.402550 -12.484659 20.873384 9.852222 28.798796 21.363942 -9.536716 0.000000 0.000000 0.000000 
2.358999 70.354660 140.263763 0.000000 0.000000 0.000000 9.028102 -16.495530 1.988721 18.173458 36.138066 12.624016 24.671284 19.661345 0.014595 6.811357 -3.446323 -23.169139 0.000000 0.000000 0.000000 8.134602 -16.059709 -0.650873 -84.552442 -5.517163 -1.912181 66.357234 3.570255 -6.093111 14.215914 2.717753 6.068571 0.000000 0.000000 0.000000 7.606202 -15.800203 0.488062 0.351978 -2.493153 -0.677085 1.549666 -6.272791 4.402594 8.205262 -10.998565 2.209214 0.000000 0.000000 0.000000 5.185614 -11.583463 2.118663 1.347672 1.223013 2.940877 0.000000 0.000000 0.000000 5.349788 -11.683394 1.715676 -6.117942 -19.048117 -20.366835 -38.068565 -34.879030 -31.592415 -11.845344 -38.366918 4.786470 0.000000 0.000000 0.000000 5.269327 -11.327416 2.615988 -3.347617 -5.200355 9.590753 -5.870154 11.243845 4.432655 22.298295 19.703579 -3.523420 0.000000 0.000000 0.000000 
1.480600 70.492569 144.554642 0.000000 0.000000 0.000000 11.193036 -21.548747 0.920821 13.198915 35.397558 14.731738 26.711533 20.249161 0.411586 21.647543 -3.334789 -14.699435 0.000000 0.000000 0.000000 10.529174 -21.312354 -1.578575 -82.994797 -5.381418 2.106785 67.579722 3.690578 -6.194382 10.197338 3.863773 5.251851 0.000000 0.000000 0.000000 10.220061 -21.797478 -0.100362 0.143063 -1.757410 -0.867169 1.691746 -7.019348 4.513253 8.211018 -12.568728 2.932123 0.000000 0.000000 0.000000 5.269858 -13.172668 2.774028 0.570596 1.835832 3.397537 0.000000 0.000000 0.000000 5.540241 -13.299282 2.400088 -7.028554 -21.857514 -19.046302 -32.684115 -38.446923 -33.157003 -9.738037 -31.384781 2.879926 0.000000 0.000000 0.000000 5.397858 -12.853092 3.431058 -3.603335 -6.500501 12.450541 -4.287418 5.637262 2.865854 16.779314 20.045915 0.018150 0.000000 0.000000 0.000000 
0.820818 70.840897 148.924591 0.000000 0.000000 0.000000 12.757008 -26.671556 -0.303821 8.132161 33.794745 17.147378 31.223995 20.030561 1.148629 29.762474 -2.544997 -8.133514 0.000000 0.000000 0.000000 12.247479 -26.643060 -2.469354 -79.162070 -4.605086 5.748043 66.457385 4.426475 -6.024833 3.827631 5.751702 6.003898 0.000000 0.000000 0.000000 12.268457 -27.834255 -0.744974 -0.040850 -0.782540 -1.016428 2.289307 -7.040735 4.382275 7.694113 -13.254752 3.190860 0.000000 0.000000 0.000000 4.797114 -13.859957 2.897118 -0.218135 2.331015 3.737269 0.000000 0.000000 0.000000 5.301966 -13.944950 2.585462 -7.228928 -23.635571 -16.967785 -30.233132 -38.512718 -35.740959 -8.204830 -28.640307 0.952920 0.000000 0.000000 0.000000 4.984741 -13.474273 3.693795 -3.676912 -7.777825 13.263963 -5.746909 3.140086 3.350854 11.739101 20.791641 2.007028 0.000000 0.000000 0.000000 
0.299815 71.398361 153.203903 0.000000 0.000000 0.000000 13.296637 -31.523475 -1.669995 2.018203 32.092737 20.531526 39.277457 19.259358 1.488553 31.049794 -2.547172 -3.718098 0.000000 0.000000 0.000000 12.853301 -31.574120 -3.439909 -74.260207 -3.445955 8.296219 64.432870 5.467238 -5.165407 -2.860654 7.748493 8.108013 0.000000 0.000000 0.000000 13.369141 -33.507945 -1.440762 -0.465773 0.123305 -1.020801 3.157800 -6.680178 4.024776 6.882896 -13.258345 3.068267 0.000000 0.000000 0.000000 3.920995 -13.793035 2.582530 -0.904989 2.687054 3.943773 0.000000 0.000000 0.000000 4.759843 -13.819547 2.327021 -6.726612 -24.447711 -14.373703 -31.441382 -36.935191 -39.368176 -7.243757 -28.369612 -0.786744 0.000000 0.000000 0.000000 4.101573 -13.381458 3.494606 -3.501038 -8.913240 12.561519 -8.841655 2.287392 4.565289 6.901676 21.340660 3.092902 0.000000 0.000000 0.000000 
